<?xml version="1.0" encoding="utf-8"?>
<!-- Generator: Adobe Illustrator 15.0.2, SVG Export Plug-In . SVG Version: 6.00 Build 0)  -->
<!DOCTYPE svg PUBLIC "-//W3C//DTD SVG 1.1//EN" "http://www.w3.org/Graphics/SVG/1.1/DTD/svg11.dtd">
<svg xmlns="http://www.w3.org/2000/svg" xmlns:xlink="http://www.w3.org/1999/xlink" version="1.1" id="Layer_1" x="0px" y="0px" width="34.667px" height="34.667px" viewBox="0 0 34.667 34.667" xml:space="preserve">
<g>
	<polygon fill="#000000" points="14.481,21.337 18.609,13.237 8.576,13.237 4.448,21.337  "/>
	<g>
		<path fill="#000000" d="M18.167,13.237h1.283v2.972h0.021c0.091-0.144,0.199-0.271,0.326-0.383    c0.127-0.112,0.27-0.208,0.422-0.287c0.152-0.078,0.314-0.139,0.484-0.18c0.168-0.041,0.336-0.062,0.5-0.062    c0.459,0,0.855,0.081,1.198,0.241c0.341,0.161,0.624,0.383,0.851,0.664c0.226,0.281,0.395,0.609,0.506,0.985    c0.113,0.375,0.17,0.775,0.17,1.205c0,0.391-0.051,0.77-0.151,1.137c-0.103,0.367-0.256,0.691-0.461,0.975    c-0.207,0.279-0.469,0.506-0.782,0.676c-0.314,0.169-0.688,0.253-1.113,0.253c-0.195,0-0.394-0.013-0.592-0.039    c-0.199-0.026-0.389-0.077-0.568-0.151s-0.344-0.174-0.487-0.293c-0.147-0.121-0.271-0.277-0.366-0.474h-0.021v0.8h-1.217v-8.038    H18.167z M22.646,18.369c0-0.262-0.033-0.518-0.102-0.765c-0.067-0.248-0.168-0.467-0.305-0.659    c-0.135-0.19-0.303-0.345-0.506-0.461c-0.203-0.116-0.438-0.175-0.697-0.175c-0.541,0-0.947,0.188-1.222,0.562    s-0.411,0.874-0.411,1.498c0,0.293,0.035,0.563,0.105,0.815c0.072,0.252,0.18,0.467,0.32,0.647c0.144,0.18,0.312,0.32,0.514,0.428    c0.197,0.104,0.431,0.156,0.691,0.156c0.293,0,0.539-0.062,0.742-0.181c0.203-0.12,0.369-0.274,0.5-0.467    c0.133-0.192,0.227-0.41,0.281-0.653C22.619,18.875,22.646,18.625,22.646,18.369z"/>
		<path fill="#000000" d="M28.938,17.402c-0.054-0.359-0.196-0.632-0.435-0.815c-0.236-0.185-0.535-0.276-0.896-0.276    c-0.166,0-0.343,0.028-0.528,0.084c-0.188,0.057-0.361,0.162-0.52,0.315c-0.157,0.153-0.288,0.367-0.395,0.641    c-0.104,0.274-0.156,0.632-0.156,1.074c0,0.24,0.027,0.479,0.084,0.722c0.057,0.24,0.146,0.453,0.271,0.642    c0.124,0.188,0.283,0.34,0.479,0.457c0.195,0.115,0.433,0.174,0.709,0.174c0.375,0,0.687-0.116,0.929-0.351    c0.243-0.231,0.396-0.56,0.457-0.979h1.28c-0.119,0.759-0.405,1.339-0.858,1.738c-0.454,0.401-1.058,0.604-1.808,0.604    c-0.457,0-0.86-0.077-1.211-0.23c-0.348-0.152-0.643-0.363-0.883-0.631c-0.24-0.267-0.422-0.583-0.545-0.949    c-0.125-0.367-0.188-0.767-0.188-1.192c0-0.437,0.062-0.844,0.183-1.228c0.118-0.382,0.299-0.714,0.541-0.996    c0.238-0.281,0.536-0.503,0.893-0.664c0.357-0.16,0.775-0.241,1.256-0.241c0.338,0,0.658,0.043,0.963,0.129    c0.304,0.086,0.574,0.216,0.811,0.388c0.237,0.173,0.43,0.391,0.58,0.653c0.148,0.263,0.239,0.574,0.271,0.935h-1.283V17.402z"/>
	</g>
</g>
</svg>
