<?xml version="1.0" encoding="utf-8"?>
<!DOCTYPE svg PUBLIC "-//W3C//DTD SVG 1.1//EN" "http://www.w3.org/Graphics/SVG/1.1/DTD/svg11.dtd">
<svg version="1.1" xmlns="http://www.w3.org/2000/svg" xmlns:xlink="http://www.w3.org/1999/xlink" x="0px" y="0px" viewBox="-250 -250 1500 1500" enable-background="new 0 0 1000 1000" xml:space="preserve">
<g><path d="M338.8,760.8c12.6,0,24.5,2.3,35.8,7c11.3,4.6,21,11.1,29.3,19.4c8.3,8.3,14.9,18,19.9,29.3c5,11.3,7.4,23.2,7.4,35.8c0,12.6-2.5,24.5-7.4,35.8s-11.6,21-19.9,29.3c-8.3,8.3-18.1,14.9-29.3,19.9c-11.3,5-23.2,7.5-35.8,7.4c-13.2,0-25.5-2.5-36.7-7.4c-11.3-5-21-11.6-29.3-19.9c-8.3-8.3-14.9-18.1-19.9-29.3c-5-11.3-7.4-23.2-7.4-35.8c0-12.6,2.5-24.5,7.4-35.8c5-11.3,11.6-21,19.9-29.3c8.3-8.3,18.1-14.7,29.3-19.4C313.3,763.1,325.6,760.8,338.8,760.8z M752,762.8c12.6,0,24.7,2.3,36.3,7c11.6,4.6,21.5,11.1,29.8,19.4c8.3,8.3,14.9,18,19.9,29.3c5,11.3,7.4,23.2,7.4,35.8s-2.5,24.5-7.4,35.8c-5,11.3-11.6,21-19.9,29.3c-8.3,8.3-18.2,14.9-29.8,19.9c-11.6,5-23.7,7.5-36.3,7.4c-12.6,0-24.5-2.5-35.8-7.4c-11.3-4.9-21-11.6-29.3-19.9c-8.3-8.3-14.9-18.1-19.9-29.3s-7.4-23.2-7.4-35.8c0-12.6,2.5-24.5,7.4-35.8s11.6-21,19.9-29.3c8.3-8.3,18.1-14.8,29.3-19.4C727.5,765.1,739.5,762.8,752,762.8z M918.9,198.6c18.5,0,32.9,2.5,43.2,7.4c10.3,5,17.5,11.1,21.9,18.4s6.3,15.1,6,23.3c-0.3,8.3-1.5,15.4-3.5,21.4c-2,6-6.3,18.2-12.9,36.7c-6.6,18.5-13.8,38.9-21.4,61.1c-7.6,22.2-15.2,44.2-22.9,66.1c-7.6,21.8-13.8,39-18.4,51.7c-8.6,26.5-19.4,44.9-32.3,55.1c-12.9,10.3-29,15.4-48.2,15.4H309l13.9,89.4h501.6c31.8,0,47.7,13.6,47.7,40.7c0,13.2-3.1,24.8-9.4,34.8c-6.3,9.9-18.7,14.6-37.3,13.9H305c-13.2,0-24.3-3-33.3-8.9c-8.9-6-16.4-13.7-22.3-23.3c-6-9.6-10.8-20-14.4-31.3c-3.6-11.3-6.5-21.8-8.5-31.8c-0.7-4-2.5-13.6-5.5-28.8c-3-15.2-6.6-34.3-10.9-57.1c-4.3-22.9-9.1-48.4-14.4-76.5c-5.3-28.1-10.6-56.4-15.9-84.9c-12.6-66.9-26.8-141.4-42.7-223.5H62.6c-9.9,0-18.2-2.5-24.8-7.4c-6.6-5-12.1-10.9-16.4-17.9c-4.3-7-7.3-14.4-8.9-22.3c-1.6-7.9-2.5-15.2-2.5-21.9c0-13.2,4.5-24.2,13.4-32.8c8.9-8.6,21-12.6,36.3-11.9H160c13.2,0,23.8,2,31.8,6c7.9,4,14.2,9,18.9,14.9c4.6,6,8,12.1,9.9,18.4c2,6.3,3.6,11.8,5,16.4c1.3,5.3,2.7,12.7,4,22.3c1.3,9.6,2.6,19.4,4,29.3c2,11.9,4,24.5,6,37.8L918.9,198.6L918.9,198.6z M882.2,287l-621.8-2l34.8,179.8l519.5,1L882.2,287z"/></g>
</svg>