<?xml version="1.0" standalone="no"?>
<!DOCTYPE svg PUBLIC "-//W3C//DTD SVG 20010904//EN"
 "http://www.w3.org/TR/2001/REC-SVG-20010904/DTD/svg10.dtd">
<svg version="1.0" xmlns="http://www.w3.org/2000/svg"
 width="500.000000pt" height="500.000000pt" viewBox="0 0 500.000000 500.000000"
 preserveAspectRatio="xMidYMid meet">
<g transform="translate(0.000000,500.000000) scale(0.100000,-0.100000)"
fill="#000000" stroke="none">
<path d="M1280 3380 c0 -6 -4 -53 -10 -103 -5 -51 -24 -247 -40 -437 -17 -190
-37 -417 -45 -505 -38 -419 -45 -518 -39 -553 10 -57 51 -124 92 -152 36 -24
44 -25 224 -28 151 -3 189 -1 192 10 3 7 12 101 21 208 9 107 25 287 35 400
10 113 28 318 40 455 12 138 23 256 25 263 3 9 50 12 187 12 289 -1 304 -8
302 -153 -2 -80 -43 -568 -75 -885 -8 -87 -7 -112 6 -158 19 -67 74 -127 130
-143 22 -6 115 -11 208 -11 158 0 167 1 167 19 0 11 18 221 40 468 63 711 76
842 84 851 4 3 98 6 209 6 219 1 262 -7 273 -49 5 -22 -15 -272 -68 -845 -7
-74 -13 -180 -13 -236 0 -91 2 -104 25 -137 44 -65 70 -72 293 -75 108 -2 197
0 197 5 0 7 63 709 100 1116 36 395 23 492 -81 581 -83 71 -123 79 -400 84
-336 6 -411 -8 -504 -89 l-35 -31 -42 41 c-74 71 -92 74 -442 79 -369 4 -416
-2 -512 -74 l-58 -44 -41 39 c-61 59 -114 74 -292 79 -114 3 -153 1 -153 -8z"/>
</g>
</svg>
