<?xml version="1.0" encoding="UTF-8" standalone="no"?>
<svg version="1.0"
	xmlns:svg="http://www.w3.org/2000/svg"
	xmlns="http://www.w3.org/2000/svg"
	viewBox="0 0 430 430"
	preserveaspectratio="xMidYMid meet">
	<g transform="translate(0,430) scale(0.1,-0.1)" fill="#000000" stroke="none">
		<path d="M2440 3433 c-216 -18 -405 -87 -606 -221 -358 -241 -679 -683 -791 -1088 -24 -87 -27 -116 -27 -239 0 -112 5 -156 22 -219 81 -293 283 -541 547 -671 133 -66 224 -87 375 -88 99 -1 142 4 208 21 275 74 458 236 541 479 33 99 49 215 56 403 3 96 8 193 11 214 3 27 34 86 95 184 109 173 208 374 245 497 23 76 27 110 28 215 1 122 0 127 -33 197 -71 151 -228 255 -447 297 -87 16 -170 23 -224 19z m265 -163 c195 -50 298 -149 325 -311 19 -123 -21 -305 -111 -500 -23 -49 -43 -88 -45 -86 -2 1 9 39 23 82 23 68 27 98 27 200 1 111 -1 124 -26 171 -51 97 -159 167 -308 200 -100 22 -318 22 -420 0 -376 -81 -743 -336 -963 -668 -28 -42 -53 -76 -55 -74 -5 6 49 115 99 202 239 406 658 728 1034 793 33 6 71 13 85 15 57 10 258 -4 335 -24z m-123 -338 c134 -36 224 -97 263 -178 22 -46 38 -139 30 -176 -6 -24 -11 -29 -28 -25 -12 3 -48 9 -79 12 l-58 7 0 39 c0 49 -12 49 -40 3 l-21 -37 -67 7 c-37 3 -84 6 -104 6 -35 0 -38 2 -38 28 0 15 4 43 10 62 16 56 -5 55 -38 -2 -16 -30 -36 -59 -43 -65 -8 -6 -67 -13 -133 -15 l-119 -5 7 63 c9 85 -9 85 -51 0 -36 -71 -45 -76 -175 -76 l-68 0 0 35 c0 45 -16 45 -37 0 -20 -42 -42 -50 -198 -65 -60 -6 -125 -13 -142 -16 -20 -4 -33 -2 -33 4 0 15 152 145 237 203 143 97 325 173 485 204 106 20 339 13 440 -13z m-522 -745 c282 -80 479 -230 480 -367 0 -19 -4 -41 -8 -48 -5 -7 -60 -25 -123 -41 -332 -83 -721 -93 -1054 -26 -178 36 -198 44 -212 91 -17 57 -16 205 3 279 16 63 17 64 63 81 29 10 89 18 161 21 l115 4 83 -40 c159 -78 288 -183 373 -305 51 -72 56 -72 50 9 -7 78 -104 192 -244 286 -50 33 -83 61 -75 64 86 31 260 28 388 -8z m647 -399 c-10 -247 -62 -386 -196 -519 -87 -87 -167 -135 -296 -178 -234 -78 -504 -48 -716 79 -134 81 -275 235 -346 375 -40 78 -36 91 9 30 116 -157 309 -279 531 -337 109 -29 338 -31 437 -4 246 66 395 176 485 359 44 90 84 234 85 305 0 17 3 32 6 32 4 0 4 -64 1 -142z m-154 -210 c-58 -109 -183 -205 -313 -241 -158 -44 -413 -48 -565 -8 -152 40 -297 124 -395 226 -39 42 -42 47 -20 41 44 -12 172 -34 243 -41 l67 -7 0 -37 c0 -55 11 -57 34 -9 l21 43 103 3 c114 3 109 7 93 -75 -4 -23 -5 -47 -1 -54 10 -15 30 -3 30 20 0 9 13 38 29 63 33 51 40 54 184 61 l67 3 0 -63 c0 -61 14 -84 27 -45 3 9 16 40 28 68 l22 51 84 11 c113 16 109 17 109 -22 0 -18 6 -39 13 -45 11 -9 16 -3 25 28 15 47 31 62 80 72 65 12 65 12 35 -43z"/>
	</g>
</svg>